<!--?xml version="1.0" encoding="utf-8"?-->
<!-- Generator: Adobe Illustrator 23.0.1, SVG Export Plug-In . SVG Version: 6.00 Build 0)  -->
<svg version="1.1" id="Layer_1" xmlns="http://www.w3.org/2000/svg" xmlns:xlink="http://www.w3.org/1999/xlink" x="0px" y="0px" viewBox="0 0 560 560" style="" xml:space="preserve">
<style type="text/css">
	.st0{fill-rule:evenodd;clip-rule:evenodd;fill:none;stroke:#FFFFFF;stroke-miterlimit:10;}
</style>
<path class="st0 fFyumABf_0" d="M273.68,335.23l30.28-43.04l-51.45-30.47l0.42-37.35L348.53,286l-43.54,62.78L273.68,335.23z"></path>
<path class="st0 fFyumABf_1" d="M408.51,354.59l-0.82-21.45l22.44,12.66l0.32,20.06l14.97,9.05l-0.32-20.06l69.18,37.96l45.72,0.3
	l-169.43-95.18l2.25,46.78L408.51,354.59z"></path>
<path class="st0 fFyumABf_2" d="M158.62,329.39l-109.08,61.3l-45.71,0.22l141.75-79.84L158.62,329.39z"></path>
<path class="st0 fFyumABf_3" d="M259.87,381.41l1.23,52.89l15.12,12.59l-0.76-32.83l11.33,8.98l2.08,89.36l16.99,33.6l-2.82-141.39
	l-20.81-17.99l3.2-21.93l-20.6-8.87L259.87,381.41z"></path>
<path class="st0 fFyumABf_4" d="M256.54,44.82l7.31-27.38l98.07,37.34l-51.75,1.42l-33.31-13.06l13,20.22l-22.18-0.17L256.54,44.82z"></path>
<path class="st0 fFyumABf_5" d="M391.19,280.94c5.65-7.09,12.06-13,17.1-41.27c5.23-29.36-4-62.79-22.8-88.18
	c-17.41-23.51-47.13-41.78-70.3-46.9c-49.57-10.96-78.51-2.73-106.4,16.88c-26.58,18.7-49.37,49.76-53.2,76.92
	c-7.53,53.36,15.06,92.06,39.9,116.32c22.75,22.22,47.16,28.19,57,33.77l-5.7,24.39c-20.54-5.71-46.54-16.83-70.3-39.4
	c-12.02-11.42-25.17-26.18-33.24-43.84c-11.46-25.06-19.58-47.34-12.36-94.99c7.88-51.94,46.63-88.03,81.7-106.94
	c28.81-15.53,70.27-18.58,100.7-13.13c27.16,4.86,60.15,22.25,81.7,43.15c33.39,32.39,47.04,78.49,41.8,116.32
	c-4.53,32.7-16.71,54.58-21.71,61.36L391.19,280.94z"></path>
<path class="st0 fFyumABf_6" d="M360.79,202.15c-3.09-23.6-20.47-48.29-38-56.28c-18.16-8.28-42.78-11.93-62.7-5.63
	c-23.01,7.28-38,20.64-38,20.64l134.9,80.67C356.99,241.54,363.25,220.86,360.79,202.15z"></path>
<style data-made-with="vivus-instant">.fFyumABf_0{stroke-dasharray:375 377;stroke-dashoffset:376;animation:fFyumABf_draw_0 7200ms ease-in-out 0ms infinite,fFyumABf_fade 7200ms linear 0ms infinite;}.fFyumABf_1{stroke-dasharray:490 492;stroke-dashoffset:491;animation:fFyumABf_draw_1 7200ms ease-in-out 0ms infinite,fFyumABf_fade 7200ms linear 0ms infinite;}.fFyumABf_2{stroke-dasharray:357 359;stroke-dashoffset:358;animation:fFyumABf_draw_2 7200ms ease-in-out 0ms infinite,fFyumABf_fade 7200ms linear 0ms infinite;}.fFyumABf_3{stroke-dasharray:487 489;stroke-dashoffset:488;animation:fFyumABf_draw_3 7200ms ease-in-out 0ms infinite,fFyumABf_fade 7200ms linear 0ms infinite;}.fFyumABf_4{stroke-dasharray:289 291;stroke-dashoffset:290;animation:fFyumABf_draw_4 7200ms ease-in-out 0ms infinite,fFyumABf_fade 7200ms linear 0ms infinite;}.fFyumABf_5{stroke-dasharray:1445 1447;stroke-dashoffset:1446;animation:fFyumABf_draw_5 7200ms ease-in-out 0ms infinite,fFyumABf_fade 7200ms linear 0ms infinite;}.fFyumABf_6{stroke-dasharray:376 378;stroke-dashoffset:377;animation:fFyumABf_draw_6 7200ms ease-in-out 0ms infinite,fFyumABf_fade 7200ms linear 0ms infinite;}@keyframes fFyumABf_draw{100%{stroke-dashoffset:0;}}@keyframes fFyumABf_fade{0%{stroke-opacity:1;}94.44444444444444%{stroke-opacity:1;}100%{stroke-opacity:0;}}@keyframes fFyumABf_draw_0{11.11111111111111%{stroke-dashoffset: 376}38.88888888888889%{ stroke-dashoffset: 0;}100%{ stroke-dashoffset: 0;}}@keyframes fFyumABf_draw_1{13.425925925925924%{stroke-dashoffset: 491}41.2037037037037%{ stroke-dashoffset: 0;}100%{ stroke-dashoffset: 0;}}@keyframes fFyumABf_draw_2{15.740740740740739%{stroke-dashoffset: 358}43.51851851851851%{ stroke-dashoffset: 0;}100%{ stroke-dashoffset: 0;}}@keyframes fFyumABf_draw_3{18.055555555555554%{stroke-dashoffset: 488}45.83333333333333%{ stroke-dashoffset: 0;}100%{ stroke-dashoffset: 0;}}@keyframes fFyumABf_draw_4{20.37037037037037%{stroke-dashoffset: 290}48.148148148148145%{ stroke-dashoffset: 0;}100%{ stroke-dashoffset: 0;}}@keyframes fFyumABf_draw_5{22.685185185185183%{stroke-dashoffset: 1446}50.462962962962955%{ stroke-dashoffset: 0;}100%{ stroke-dashoffset: 0;}}@keyframes fFyumABf_draw_6{25%{stroke-dashoffset: 377}52.77777777777778%{ stroke-dashoffset: 0;}100%{ stroke-dashoffset: 0;}}</style></svg>
